<?xml version="1.0" encoding="utf-8"?>
<!-- Generator: Adobe Illustrator 26.4.0, SVG Export Plug-In . SVG Version: 6.00 Build 0)  -->
<svg version="1.1" id="Layer_1" xmlns="http://www.w3.org/2000/svg" xmlns:xlink="http://www.w3.org/1999/xlink" x="0px" y="0px"
	 viewBox="0 0 100 100.1" style="enable-background:new 0 0 100 100.1;" xml:space="preserve">
<style type="text/css">
	.st0{fill-rule:evenodd;clip-rule:evenodd;fill:#2F1F49;}
	.st1{fill:#2F1F49;}
	.st2{fill:none;stroke:#9F3FFF;stroke-width:4;stroke-linecap:round;stroke-linejoin:round;}
	.st3{fill:#9F3FFF;}
</style>
<path class="st0" d="M60.2,4.2l35.6,35.6c5.6,5.6,5.6,14.7,0,20.3L60.2,95.9c-5.6,5.6-14.7,5.6-20.3,0L4.2,60.2
	c-5.6-5.6-5.6-14.7,0-20.3L39.9,4.2C45.5-1.4,54.6-1.4,60.2,4.2z M47.7,13.2l-0.1,0.1L13.4,47.5C12,48.9,12,51,13.3,52.4l0.1,0.1
	l34.1,34.1c1.4,1.4,3.5,1.4,4.9,0.1l0.1-0.1l34.1-34.1c1.4-1.4,1.4-3.7,0-5.1l-34-34C51.3,12,49.1,12,47.7,13.2z M50.7,28.3
	l21.1,21.1c0.4,0.4,0.4,0.9,0,1.3L50.7,71.8c-0.4,0.4-0.9,0.4-1.3,0L28.3,50.7c-0.4-0.4-0.4-0.9,0-1.3l21.1-21.1
	C49.8,27.9,50.3,27.9,50.7,28.3z"/>
</svg>
