<svg version="1.1" id="prefix__Layer_1" xmlns="http://www.w3.org/2000/svg" x="0" y="0" viewBox="0 0 100 100.1" xml:space="preserve"><style></style><path d="M60.2 4.2l35.6 35.6c5.6 5.6 5.6 14.7 0 20.3L60.2 95.9c-5.6 5.6-14.7 5.6-20.3 0L4.2 60.2c-5.6-5.6-5.6-14.7 0-20.3L39.9 4.2c5.6-5.6 14.7-5.6 20.3 0zm-12.5 9l-.1.1-34.2 34.2c-1.4 1.4-1.4 3.5-.1 4.9l.1.1 34.1 34.1c1.4 1.4 3.5 1.4 4.9.1l.1-.1 34.1-34.1c1.4-1.4 1.4-3.7 0-5.1l-34-34c-1.3-1.4-3.5-1.4-4.9-.2zm3 15.1l21.1 21.1c.4.4.4.9 0 1.3L50.7 71.8c-.4.4-.9.4-1.3 0L28.3 50.7c-.4-.4-.4-.9 0-1.3l21.1-21.1c.4-.4.9-.4 1.3 0z" fill-rule="evenodd" clip-rule="evenodd" fill="#2f1f49"/></svg>