<svg version="1.1" xmlns="http://www.w3.org/2000/svg" viewBox="0 0 1449.1188149999996 726.7542119999998" width="2898.237629999999" height="1453.5084239999996">
  <!-- svg-source:excalidraw -->
  
  <defs>
    <style class="style-fonts">
      @font-face {
        font-family: "Virgil";
        src: url("https://excalidraw.com/Virgil.woff2");
      }
      @font-face {
        font-family: "Cascadia";
        src: url("https://excalidraw.com/Cascadia.woff2");
      }
      @font-face {
        font-family: "Assistant";
        src: url("https://excalidraw.com/Assistant-Regular.woff2");
      }
    </style>
    
  </defs>
  <rect x="0" y="0" width="1449.1188149999996" height="726.7542119999998" fill="#ffffff"></rect><g stroke-linecap="round" transform="translate(795.3810099999998 130.25421199999988) rotate(0 177.75 293.25)"><path d="M32 0 C134.63 2.81, 238.83 1.72, 323.5 0 M32 0 C129.77 -0.37, 227.09 -0.35, 323.5 0 M323.5 0 C344.7 1.39, 354.42 9.25, 355.5 32 M323.5 0 C346.7 -1.19, 354.44 9.73, 355.5 32 M355.5 32 C354.28 176.27, 354.16 319.53, 355.5 554.5 M355.5 32 C354.15 225.14, 354.19 417.81, 355.5 554.5 M355.5 554.5 C353.65 574.49, 344.05 584.93, 323.5 586.5 M355.5 554.5 C356.79 576.46, 344.63 584.45, 323.5 586.5 M323.5 586.5 C228.07 585.41, 131.46 585.42, 32 586.5 M323.5 586.5 C231.35 586.29, 140.77 587.54, 32 586.5 M32 586.5 C11.35 588.14, 1.32 574.97, 0 554.5 M32 586.5 C11.17 585.91, 0.28 577.07, 0 554.5 M0 554.5 C-0.53 389.65, -1.6 223.57, 0 32 M0 554.5 C0.53 366.04, 0.62 178.08, 0 32 M0 32 C0.59 9.2, 9.68 -1.82, 32 0 M0 32 C1.3 12.29, 11.56 0.49, 32 0" stroke="#1e1e1e" stroke-width="1" fill="none"></path></g><g transform="translate(896.8953609999999 151.75421199999988) rotate(0 71.7799301147461 12.5)"><text x="0" y="0" font-family="Virgil, Segoe UI Emoji" font-size="20px" fill="#1e1e1e" text-anchor="start" style="white-space: pre;" direction="ltr" dominant-baseline="text-before-edge">Aztec Network</text></g><g stroke-linecap="round" transform="translate(456.19807599999984 151.75421199999988) rotate(0 134 161.75210600000003)"><path d="M32 0 C100.79 2.19, 171.07 1.57, 236 0 M32 0 C103.22 1.95, 174.84 1.17, 236 0 M236 0 C258.48 1.04, 269.52 9.76, 268 32 M236 0 C258.45 2.22, 267.88 11.06, 268 32 M268 32 C267.42 87.59, 269.7 143.02, 268 291.5 M268 32 C268.53 88.03, 269.66 142.79, 268 291.5 M268 291.5 C267.99 312.01, 258.56 324.04, 236 323.5 M268 291.5 C266.22 311.03, 258.16 321.8, 236 323.5 M236 323.5 C189.89 324.97, 142.36 323.67, 32 323.5 M236 323.5 C183.78 325.32, 132.61 324.01, 32 323.5 M32 323.5 C8.98 322.24, 1.64 311.99, 0 291.5 M32 323.5 C11.32 321.55, 1.72 310.64, 0 291.5 M0 291.5 C0.54 237.86, 1.05 184.16, 0 32 M0 291.5 C0.06 222.66, 0.74 153.59, 0 32 M0 32 C-1.17 9.59, 12.54 0.78, 32 0 M0 32 C2.02 12.01, 9.27 -0.46, 32 0" stroke="#1e1e1e" stroke-width="1" fill="none"></path></g><g transform="translate(478.19807599999984 167.75421199999988) rotate(0 114.0137939453125 19.25)"><text x="0" y="0" font-family="Virgil, Segoe UI Emoji" font-size="15.399999999999999px" fill="#1e1e1e" text-anchor="start" style="white-space: pre;" direction="ltr" dominant-baseline="text-before-edge">Private Execution Environment</text><text x="0" y="19.25" font-family="Virgil, Segoe UI Emoji" font-size="15.399999999999999px" fill="#1e1e1e" text-anchor="start" style="white-space: pre;" direction="ltr" dominant-baseline="text-before-edge">           (PXE)</text></g><g stroke-linecap="round" transform="translate(10.000000000000014 240.78540599999997) rotate(0 60.5 59.99999999999997)"><path d="M75.87 2.16 C84.72 3.48, 94.84 9.1, 101.63 15.22 C108.42 21.35, 113.58 30.33, 116.62 38.91 C119.66 47.5, 120.81 57.4, 119.86 66.74 C118.9 76.07, 116.07 87.03, 110.88 94.92 C105.69 102.8, 97.18 109.75, 88.73 114.06 C80.29 118.36, 69.74 120.97, 60.21 120.76 C50.68 120.55, 39.96 117.31, 31.55 112.79 C23.14 108.27, 15.02 101.38, 9.75 93.61 C4.48 85.85, 0.73 75.44, -0.07 66.23 C-0.86 57.01, 1.66 46.85, 4.98 38.32 C8.3 29.8, 12.92 21.16, 19.87 15.08 C26.81 9, 36.84 4.06, 46.63 1.85 C56.43 -0.36, 73.24 1.27, 78.65 1.8 C84.06 2.34, 79.5 4.13, 79.08 5.07 M51.12 -0.53 C59.84 -2.77, 71.01 0.8, 79.78 4.11 C88.54 7.42, 97.17 12.89, 103.71 19.34 C110.25 25.79, 116.37 34.33, 119.01 42.8 C121.66 51.28, 121.56 61.03, 119.57 70.19 C117.57 79.35, 112.76 90.11, 107.05 97.74 C101.34 105.38, 93.64 112.06, 85.3 115.99 C76.96 119.92, 66.44 121.97, 57 121.33 C47.56 120.7, 36.59 117.33, 28.69 112.18 C20.78 107.02, 14.13 98.75, 9.58 90.41 C5.03 82.07, 1.89 71.4, 1.39 62.14 C0.89 52.88, 2.62 43.34, 6.58 34.85 C10.54 26.35, 18.04 16.87, 25.15 11.17 C32.26 5.47, 44.99 2.36, 49.26 0.63 C53.53 -1.1, 50.17 -0.11, 50.76 0.78" stroke="#1e1e1e" stroke-width="1" fill="none"></path></g><g transform="translate(48.38006628850685 288.3589991288071) rotate(0 22.33997344970703 12.5)"><text x="22.33997344970703" y="0" font-family="Virgil, Segoe UI Emoji" font-size="20px" fill="#1e1e1e" text-anchor="middle" style="white-space: pre;" direction="ltr" dominant-baseline="text-before-edge">User</text></g><g stroke-linecap="round" transform="translate(236.45279399999998 229.25421199999994) rotate(0 61 76.99999999999991)"><path d="M30.5 0 C43.43 -1.16, 56.67 0.76, 91.5 0 M30.5 0 C55.1 0.75, 78.84 -0.11, 91.5 0 M91.5 0 C113.56 -1.55, 123.37 9.66, 122 30.5 M91.5 0 C112.59 0.79, 123.65 12.15, 122 30.5 M122 30.5 C121.94 52.09, 121.23 70.45, 122 123.5 M122 30.5 C122.97 54.96, 123.36 82.08, 122 123.5 M122 123.5 C123.08 144.56, 110.22 152.09, 91.5 154 M122 123.5 C123.22 144.58, 113.42 155.41, 91.5 154 M91.5 154 C76.35 155.04, 64.47 155.13, 30.5 154 M91.5 154 C67.46 153.25, 45.76 153.24, 30.5 154 M30.5 154 C8.77 152.51, 0.08 141.86, 0 123.5 M30.5 154 C8.57 152.86, 1.78 144.71, 0 123.5 M0 123.5 C-1.53 92.47, 1.46 58.7, 0 30.5 M0 123.5 C0.76 96.37, 1.03 70.22, 0 30.5 M0 30.5 C1.77 9.52, 8.23 1.79, 30.5 0 M0 30.5 C-0.04 10.47, 8.45 2.27, 30.5 0" stroke="#1e1e1e" stroke-width="1" fill="none"></path></g><g transform="translate(257.5828294003906 293.7542119999999) rotate(0 39.869964599609375 12.5)"><text x="39.869964599609375" y="0" font-family="Virgil, Segoe UI Emoji" font-size="20px" fill="#1e1e1e" text-anchor="middle" style="white-space: pre;" direction="ltr" dominant-baseline="text-before-edge">Aztec.js</text></g><g stroke-linecap="round"><g transform="translate(145.0067959142223 300.81536654592304) rotate(0 33.72299904288879 0.8714363435317409)"><path d="M1.15 1.01 C12.27 1.24, 56.24 0.69, 67.12 0.67 M0.29 0.49 C11.2 0.9, 54.59 1.43, 66 1.65" stroke="#1e1e1e" stroke-width="1" fill="none"></path></g><g transform="translate(145.0067959142223 300.81536654592304) rotate(0 33.72299904288879 0.8714363435317409)"><path d="M42.38 9.83 C51.93 6.35, 56.29 2.48, 66 1.65 M42.38 9.83 C47.57 7.05, 53.39 6.64, 66 1.65" stroke="#1e1e1e" stroke-width="1" fill="none"></path></g><g transform="translate(145.0067959142223 300.81536654592304) rotate(0 33.72299904288879 0.8714363435317409)"><path d="M42.65 -7.27 C52 -5.08, 56.27 -3.29, 66 1.65 M42.65 -7.27 C47.64 -6.1, 53.4 -2.56, 66 1.65" stroke="#1e1e1e" stroke-width="1" fill="none"></path></g></g><mask></mask><g stroke-linecap="round" transform="translate(601.2394579999999 235.00421199999988) rotate(0 52.49310299999999 39.75)"><path d="M19.88 0 C39.45 1.43, 58.75 -0.5, 85.11 0 M19.88 0 C44.84 0.36, 69.52 -1.12, 85.11 0 M85.11 0 C98.33 -1.2, 106.12 8.26, 104.99 19.88 M85.11 0 C98.06 0.36, 105.49 6.67, 104.99 19.88 M104.99 19.88 C105.17 28.38, 105.84 40.54, 104.99 59.63 M104.99 19.88 C104.14 27.6, 105.08 37.47, 104.99 59.63 M104.99 59.63 C104.98 73.03, 100.22 78.03, 85.11 79.5 M104.99 59.63 C104.84 74.89, 97 79.89, 85.11 79.5 M85.11 79.5 C70.46 80.3, 57.04 80.24, 19.88 79.5 M85.11 79.5 C62.17 78.67, 40.16 78.9, 19.88 79.5 M19.88 79.5 C8.49 78.84, 1.5 70.9, 0 59.63 M19.88 79.5 C6.84 79.67, 0.25 70.78, 0 59.63 M0 59.63 C-0.95 49.86, -0.35 40.08, 0 19.88 M0 59.63 C0.14 51.41, -0.78 42.14, 0 19.88 M0 19.88 C-0.46 6.73, 6.54 -0.13, 19.88 0 M0 19.88 C1.82 4.53, 8.58 -2.26, 19.88 0" stroke="#1e1e1e" stroke-width="1" fill="none"></path></g><g transform="translate(608.6626147109374 249.75421199999988) rotate(0 45.06994628906247 25)"><text x="45.0699462890625" y="0" font-family="Virgil, Segoe UI Emoji" font-size="20px" fill="#1e1e1e" text-anchor="middle" style="white-space: pre;" direction="ltr" dominant-baseline="text-before-edge">ACIR </text><text x="45.0699462890625" y="25" font-family="Virgil, Segoe UI Emoji" font-size="20px" fill="#1e1e1e" text-anchor="middle" style="white-space: pre;" direction="ltr" dominant-baseline="text-before-edge">Simulator</text></g><g stroke-linecap="round" transform="translate(840.4552819999999 200.75421199999988) rotate(0 131.2499999999999 111.375)"><path d="M32 0 C98.2 -0.56, 162.83 -1.38, 230.5 0 M32 0 C94.63 -1.54, 155.04 -2.72, 230.5 0 M230.5 0 C250.91 -0.83, 263.65 10.54, 262.5 32 M230.5 0 C249.55 -1.4, 261.38 12.65, 262.5 32 M262.5 32 C260.2 70.85, 261.1 105.95, 262.5 190.75 M262.5 32 C262.43 64.54, 263.86 98.43, 262.5 190.75 M262.5 190.75 C261.72 211.69, 249.85 221.57, 230.5 222.75 M262.5 190.75 C262.93 211.65, 254 223.92, 230.5 222.75 M230.5 222.75 C174.04 222.56, 122.46 221.46, 32 222.75 M230.5 222.75 C187.17 222.88, 142.18 222.27, 32 222.75 M32 222.75 C11.96 223.46, 1.4 210.58, 0 190.75 M32 222.75 C12.29 224.42, 0.62 210.28, 0 190.75 M0 190.75 C0.29 148.49, 0.76 104.01, 0 32 M0 190.75 C-0.73 155.15, -1.15 120.64, 0 32 M0 32 C-0.4 9.48, 11.29 0.11, 32 0 M0 32 C0.7 12.16, 10.39 1.92, 32 0" stroke="#1e1e1e" stroke-width="1" fill="none"></path></g><g transform="translate(915.1453379999996 216.754212) rotate(0 56.55994415283203 12.5)"><text x="0" y="0" font-family="Virgil, Segoe UI Emoji" font-size="20px" fill="#1e1e1e" text-anchor="start" style="white-space: pre;" direction="ltr" dominant-baseline="text-before-edge">Aztec Node</text></g><g stroke-linecap="round" transform="translate(881.0802819999999 275.3876349999999) rotate(0 90.62499999999989 57.375)"><path d="M28.69 0 C61.44 -1.66, 90.92 1.28, 152.56 0 M28.69 0 C60.23 0.33, 93 0.57, 152.56 0 M152.56 0 C172.48 1.21, 182.54 10.64, 181.25 28.69 M152.56 0 C172.61 -2.29, 182.55 8.12, 181.25 28.69 M181.25 28.69 C180.22 43.47, 181.49 55.6, 181.25 86.06 M181.25 28.69 C181.87 40.75, 182.75 53.08, 181.25 86.06 M181.25 86.06 C182.18 106.82, 170.49 112.96, 152.56 114.75 M181.25 86.06 C179.79 105.84, 170.45 113.15, 152.56 114.75 M152.56 114.75 C127.42 113.18, 98.83 115.03, 28.69 114.75 M152.56 114.75 C110.87 113.16, 69.56 112.54, 28.69 114.75 M28.69 114.75 C7.79 113.36, 0.41 105.48, 0 86.06 M28.69 114.75 C9.16 116.71, -0.88 106.62, 0 86.06 M0 86.06 C0.72 67.19, -0.11 44.71, 0 28.69 M0 86.06 C0.41 69.75, -0.09 51.47, 0 28.69 M0 28.69 C-1.03 11.45, 8.12 1.98, 28.69 0 M0 28.69 C1.22 9.67, 8.94 0.55, 28.69 0" stroke="#1e1e1e" stroke-width="1" fill="none"></path></g><g transform="translate(924.0853326591794 320.2626349999999) rotate(0 47.61994934082031 12.5)"><text x="47.61994934082031" y="0" font-family="Virgil, Segoe UI Emoji" font-size="20px" fill="#1e1e1e" text-anchor="middle" style="white-space: pre;" direction="ltr" dominant-baseline="text-before-edge">Sequencer</text></g><g stroke-linecap="round" transform="translate(1207.8688149999998 130.25421199999988) rotate(0 115.62499999999989 293.25)"><path d="M32 0 C93.05 1, 158.13 0.55, 199.25 0 M32 0 C82.92 -0.11, 135.43 1.31, 199.25 0 M199.25 0 C222.32 -0.94, 232.59 10.93, 231.25 32 M199.25 0 C222.81 1.35, 229.71 10.09, 231.25 32 M231.25 32 C229.24 237.03, 229.88 442.96, 231.25 554.5 M231.25 32 C232.87 218.97, 232.7 404.86, 231.25 554.5 M231.25 554.5 C232.12 574.63, 220.91 586.68, 199.25 586.5 M231.25 554.5 C230.58 575.64, 222.72 587.01, 199.25 586.5 M199.25 586.5 C145.35 585.54, 93.37 584.32, 32 586.5 M199.25 586.5 C156.3 584.69, 114.41 585.66, 32 586.5 M32 586.5 C10.81 585.16, 1.09 575.58, 0 554.5 M32 586.5 C12.59 585.9, -1.38 574.61, 0 554.5 M0 554.5 C-1.61 389.67, -1.47 224.54, 0 32 M0 554.5 C-1.61 390.51, -1.9 226.61, 0 32 M0 32 C-0.75 11.62, 11.27 1.02, 32 0 M0 32 C2.12 11.91, 12.58 2.25, 32 0" stroke="#1e1e1e" stroke-width="1" fill="none"></path></g><g transform="translate(1278.9138669999998 176.754212) rotate(0 44.57994842529297 12.5)"><text x="0" y="0" font-family="Virgil, Segoe UI Emoji" font-size="20px" fill="#1e1e1e" text-anchor="start" style="white-space: pre;" direction="ltr" dominant-baseline="text-before-edge">Ethereum</text></g><g stroke-linecap="round" transform="translate(1239.1188149999998 296.5042119999999) rotate(0 84.37499999999989 57.375)"><path d="M28.69 0 C60.99 -1.92, 94.36 -0.9, 140.06 0 M28.69 0 C60.56 0.39, 94.53 1.25, 140.06 0 M140.06 0 C159.11 1.4, 169.98 7.64, 168.75 28.69 M140.06 0 C160.84 -0.6, 166.5 8.4, 168.75 28.69 M168.75 28.69 C169.87 50.01, 170.61 71.01, 168.75 86.06 M168.75 28.69 C169.15 48.07, 169.42 66.65, 168.75 86.06 M168.75 86.06 C169.38 107.04, 160.73 114.71, 140.06 114.75 M168.75 86.06 C167.61 105, 159.91 112.68, 140.06 114.75 M140.06 114.75 C113.65 114.29, 85.2 113.93, 28.69 114.75 M140.06 114.75 C112.15 114.07, 85.62 113.73, 28.69 114.75 M28.69 114.75 C8.29 112.95, -1.37 106.35, 0 86.06 M28.69 114.75 C8.34 113.1, -1.44 104.11, 0 86.06 M0 86.06 C1.94 74.93, -0.34 63.38, 0 28.69 M0 86.06 C-0.42 71.48, -0.5 58.34, 0 28.69 M0 28.69 C-0.37 11.28, 11.36 -0.98, 28.69 0 M0 28.69 C1.79 11.76, 8.25 -0.46, 28.69 0" stroke="#1e1e1e" stroke-width="1" fill="none"></path></g><g transform="translate(1246.3639016699217 341.3792119999999) rotate(0 77.12991333007812 12.5)"><text x="77.12991333007812" y="0" font-family="Virgil, Segoe UI Emoji" font-size="20px" fill="#1e1e1e" text-anchor="middle" style="white-space: pre;" direction="ltr" dominant-baseline="text-before-edge">Rollup Contract</text></g><g stroke-linecap="round"><g transform="translate(1069.703098 341.22902464360624) rotate(0 79.0192664999999 1.012593492170879)"><path d="M-0.93 -0.43 C25.54 -0.28, 132.41 0.83, 158.93 1.42 M0.78 -1.7 C27.16 -1.45, 132.33 2.13, 158.46 2.63" stroke="#1e1e1e" stroke-width="1" fill="none"></path></g><g transform="translate(1069.703098 341.22902464360624) rotate(0 79.0192664999999 1.012593492170879)"><path d="M134.74 10.54 C141.33 9.77, 148.37 6.11, 158.46 2.63 M134.74 10.54 C144.84 7.48, 153.18 4.87, 158.46 2.63" stroke="#1e1e1e" stroke-width="1" fill="none"></path></g><g transform="translate(1069.703098 341.22902464360624) rotate(0 79.0192664999999 1.012593492170879)"><path d="M135.21 -6.56 C141.72 -2.04, 148.62 -0.4, 158.46 2.63 M135.21 -6.56 C145.05 -2.99, 153.22 1.02, 158.46 2.63" stroke="#1e1e1e" stroke-width="1" fill="none"></path></g></g><mask></mask><g stroke-linecap="round" transform="translate(840.4552819999999 471.7542119999999) rotate(0 131.25 110)"><path d="M32 0 C81.35 2.79, 127.25 2.92, 230.5 0 M32 0 C80.72 -0.66, 130.67 -1.44, 230.5 0 M230.5 0 C252.84 0.54, 260.58 11.24, 262.5 32 M230.5 0 C252.86 -1.44, 264.7 12.95, 262.5 32 M262.5 32 C262.55 66.45, 262.54 99.6, 262.5 188 M262.5 32 C264.87 92.66, 264.53 152.45, 262.5 188 M262.5 188 C263.23 211.33, 252.87 219.34, 230.5 220 M262.5 188 C261.2 211.5, 251.24 219.17, 230.5 220 M230.5 220 C161.41 220.1, 90.67 218.99, 32 220 M230.5 220 C161.64 217.74, 94.76 218.52, 32 220 M32 220 C12.61 222, 1.07 209.25, 0 188 M32 220 C11.39 218.69, -0.03 209.08, 0 188 M0 188 C-1.16 144.88, 0.74 103.85, 0 32 M0 188 C-1.25 151.51, -0.27 115.92, 0 32 M0 32 C0.63 10.6, 10.37 0.13, 32 0 M0 32 C0.35 11.55, 12.16 -1.46, 32 0" stroke="#1e1e1e" stroke-width="1" fill="none"></path></g><g transform="translate(896.8953610000001 486.7626349999999) rotate(0 74.80992126464844 12.5)"><text x="0" y="0" font-family="Virgil, Segoe UI Emoji" font-size="20px" fill="#1e1e1e" text-anchor="start" style="white-space: pre;" direction="ltr" dominant-baseline="text-before-edge">Prover Network</text></g><g stroke-linecap="round" transform="translate(869.8328379999998 524.2584239999999) rotate(0 45.3125 30)"><path d="M15 0 C31.36 0.18, 45.27 0.37, 75.63 0 M15 0 C39.15 -0.55, 63.16 -0.12, 75.63 0 M75.63 0 C85.64 1.51, 92.12 4.37, 90.63 15 M75.63 0 C86.66 -1.81, 92.73 6.96, 90.63 15 M90.63 15 C91.92 26.26, 91.63 36.95, 90.63 45 M90.63 15 C90.31 22.3, 91.26 30.68, 90.63 45 M90.63 45 C88.78 54, 84.68 59.29, 75.63 60 M90.63 45 C88.61 55.45, 84.39 59, 75.63 60 M75.63 60 C50.65 59.06, 28.1 61.22, 15 60 M75.63 60 C62.82 60.87, 48.18 60.78, 15 60 M15 60 C4.89 60.11, -0.16 54.79, 0 45 M15 60 C6.3 58.84, -0.05 56.14, 0 45 M0 45 C1.69 37.01, -1.09 31.75, 0 15 M0 45 C-0.01 37.36, 1.09 29.95, 0 15 M0 15 C0.72 6.3, 5.72 1.87, 15 0 M0 15 C-1.2 3.44, 7.28 2.28, 15 0" stroke="#1e1e1e" stroke-width="1" fill="none"></path></g><g transform="translate(883.6953715693357 541.7584239999999) rotate(0 31.449966430664062 12.5)"><text x="31.449966430664062" y="0" font-family="Virgil, Segoe UI Emoji" font-size="20px" fill="#1e1e1e" text-anchor="middle" style="white-space: pre;" direction="ltr" dominant-baseline="text-before-edge">Prover</text></g><g stroke-linecap="round" transform="translate(982.9527260000002 521.7542119999998) rotate(0 45.3125 30)"><path d="M15 0 C25.76 1.44, 41.27 -2.14, 75.63 0 M15 0 C27.43 0.68, 41.08 0.69, 75.63 0 M75.63 0 C85.04 -0.96, 90.89 3.14, 90.63 15 M75.63 0 C86.99 -1.14, 91.19 4.62, 90.63 15 M90.63 15 C89.15 19.8, 90.08 29.4, 90.63 45 M90.63 15 C90.28 25.05, 90.74 34.99, 90.63 45 M90.63 45 C90.81 56.69, 86.45 60.77, 75.63 60 M90.63 45 C90 53.72, 85.08 58.16, 75.63 60 M75.63 60 C60.35 58.94, 48 60.62, 15 60 M75.63 60 C60.83 59.54, 46.03 61.18, 15 60 M15 60 C3.79 61.38, -1.32 56.28, 0 45 M15 60 C6.96 60.11, 2.07 56.32, 0 45 M0 45 C-0.57 39.33, 1.06 31.48, 0 15 M0 45 C-0.35 35.4, 1 24.68, 0 15 M0 15 C0.65 6.85, 3.18 -1.55, 15 0 M0 15 C-1.96 4.25, 3.65 1.6, 15 0" stroke="#1e1e1e" stroke-width="1" fill="none"></path></g><g transform="translate(996.8152595693361 539.2542119999998) rotate(0 31.449966430664062 12.5)"><text x="31.449966430664062" y="0" font-family="Virgil, Segoe UI Emoji" font-size="20px" fill="#1e1e1e" text-anchor="middle" style="white-space: pre;" direction="ltr" dominant-baseline="text-before-edge">Prover</text></g><g stroke-linecap="round" transform="translate(869.832838 608.3876349999998) rotate(0 45.3125 30)"><path d="M15 0 C34.92 -1.57, 55.5 -0.7, 75.63 0 M15 0 C35 1.13, 53.59 -0.4, 75.63 0 M75.63 0 C84.99 1.24, 91.62 6.72, 90.63 15 M75.63 0 C87.78 -1.38, 89.6 4.66, 90.63 15 M90.63 15 C91.48 21.77, 90.11 25.89, 90.63 45 M90.63 15 C91.38 23.34, 89.53 31.04, 90.63 45 M90.63 45 C90.13 55.59, 84.66 58.26, 75.63 60 M90.63 45 C91.9 56.06, 83.79 62.08, 75.63 60 M75.63 60 C51.03 61.69, 30.78 60.52, 15 60 M75.63 60 C52.93 59.65, 28.19 60.63, 15 60 M15 60 C6.34 61.53, 0.62 54.18, 0 45 M15 60 C5.13 58.91, 0.77 57.03, 0 45 M0 45 C-1.92 35.78, -1.8 29, 0 15 M0 45 C0.56 37.72, -1 30.92, 0 15 M0 15 C1.98 4.44, 4.15 0.65, 15 0 M0 15 C-0.67 6.45, 5.53 -1.56, 15 0" stroke="#1e1e1e" stroke-width="1" fill="none"></path></g><g transform="translate(883.695371569336 625.8876349999998) rotate(0 31.449966430664062 12.5)"><text x="31.449966430664062" y="0" font-family="Virgil, Segoe UI Emoji" font-size="20px" fill="#1e1e1e" text-anchor="middle" style="white-space: pre;" direction="ltr" dominant-baseline="text-before-edge">Prover</text></g><g stroke-linecap="round" transform="translate(982.952726 608.3876349999996) rotate(0 45.3125 30)"><path d="M15 0 C39.51 -1.53, 63.64 -0.65, 75.63 0 M15 0 C33.1 -0.09, 49.27 -0.35, 75.63 0 M75.63 0 C84.68 0.67, 92.39 4.12, 90.63 15 M75.63 0 C86.37 2.12, 88.53 3.22, 90.63 15 M90.63 15 C91.92 21.25, 92.06 27.8, 90.63 45 M90.63 15 C90.46 21.19, 91.06 27.94, 90.63 45 M90.63 45 C91.89 55.46, 84.27 61.8, 75.63 60 M90.63 45 C89.49 53.13, 87.72 57.96, 75.63 60 M75.63 60 C56.02 62.25, 38.4 59.29, 15 60 M75.63 60 C57.47 60.37, 42 59.97, 15 60 M15 60 C5.76 60.51, -0.91 55.96, 0 45 M15 60 C6.18 61.85, 0.48 56.77, 0 45 M0 45 C0.1 36.67, -1.64 26.29, 0 15 M0 45 C-0.32 38.88, 0.69 31.7, 0 15 M0 15 C-1.9 4.51, 4.4 -0.5, 15 0 M0 15 C2.2 6.69, 4.1 0.25, 15 0" stroke="#1e1e1e" stroke-width="1" fill="none"></path></g><g transform="translate(996.8152595693359 625.8876349999996) rotate(0 31.449966430664062 12.5)"><text x="31.449966430664062" y="0" font-family="Virgil, Segoe UI Emoji" font-size="20px" fill="#1e1e1e" text-anchor="middle" style="white-space: pre;" direction="ltr" dominant-baseline="text-before-edge">Prover</text></g><g stroke-linecap="round" transform="translate(493.58159000000006 343.2542119999999) rotate(0 95.61810300000002 47.4957885)"><path d="M23.75 0 C68.16 -1.22, 111.75 2.31, 167.49 0 M23.75 0 C61.93 -1.41, 101.83 -1.7, 167.49 0 M167.49 0 C181.76 0.7, 191.22 7.13, 191.24 23.75 M167.49 0 C182.24 -0.9, 191.59 6.38, 191.24 23.75 M191.24 23.75 C192.52 38.66, 189.95 51.56, 191.24 71.24 M191.24 23.75 C190.59 39.6, 191.3 56.89, 191.24 71.24 M191.24 71.24 C190.18 86.31, 181.82 96.54, 167.49 94.99 M191.24 71.24 C189.02 86.29, 183.72 92.71, 167.49 94.99 M167.49 94.99 C110.89 95.64, 59.58 95.53, 23.75 94.99 M167.49 94.99 C136.48 94.74, 103.9 94.34, 23.75 94.99 M23.75 94.99 C9.33 93.33, 1.24 86.18, 0 71.24 M23.75 94.99 C9.53 93.42, -0.82 86.23, 0 71.24 M0 71.24 C-0.35 56.27, -0.07 42.64, 0 23.75 M0 71.24 C0.01 59.89, -0.38 46.75, 0 23.75 M0 23.75 C-0.25 7.26, 8.78 -0.51, 23.75 0 M0 23.75 C-0.71 5.8, 7.92 -0.06, 23.75 0" stroke="#1e1e1e" stroke-width="1" fill="none"></path></g><g transform="translate(539.75975159375 378.25000049999977) rotate(0 49.43994140625 12.5)"><text x="49.43994140625" y="0" font-family="Virgil, Segoe UI Emoji" font-size="20px" fill="#1e1e1e" text-anchor="middle" style="white-space: pre;" direction="ltr" dominant-baseline="text-before-edge">Database</text></g><g stroke-linecap="round" transform="translate(478.19807600000007 235.004212) rotate(0 52.49310300000002 42.5)"><path d="M21.25 0 C44.24 -1.44, 61.53 -1.09, 83.74 0 M21.25 0 C35.71 -0.59, 51.96 -0.28, 83.74 0 M83.74 0 C97.68 0.36, 103.36 5.53, 104.99 21.25 M83.74 0 C96.63 -1.9, 103.03 5.52, 104.99 21.25 M104.99 21.25 C105.29 32.28, 106.69 39.13, 104.99 63.75 M104.99 21.25 C104.39 33.77, 104.75 48.4, 104.99 63.75 M104.99 63.75 C105.47 77.78, 99.58 83.66, 83.74 85 M104.99 63.75 C105.99 77.85, 99.63 84.31, 83.74 85 M83.74 85 C61.77 85.17, 35.78 83.92, 21.25 85 M83.74 85 C69.26 84.04, 56.11 84.28, 21.25 85 M21.25 85 C7.25 83.5, 0.57 77.64, 0 63.75 M21.25 85 C8.31 84.21, 0.12 77.29, 0 63.75 M0 63.75 C1.04 49.08, -0.97 36.59, 0 21.25 M0 63.75 C-0.02 52.61, -0.41 40.39, 0 21.25 M0 21.25 C1.69 5.55, 5.17 -1.27, 21.25 0 M0 21.25 C1.71 6.6, 4.86 -1.07, 21.25 0" stroke="#1e1e1e" stroke-width="1" fill="none"></path></g><g transform="translate(489.5712296591798 240.004212) rotate(0 41.11994934082031 37.5)"><text x="41.11994934082031" y="0" font-family="Virgil, Segoe UI Emoji" font-size="20px" fill="#1e1e1e" text-anchor="middle" style="white-space: pre;" direction="ltr" dominant-baseline="text-before-edge">Private </text><text x="41.11994934082031" y="25" font-family="Virgil, Segoe UI Emoji" font-size="20px" fill="#1e1e1e" text-anchor="middle" style="white-space: pre;" direction="ltr" dominant-baseline="text-before-edge">Kernel </text><text x="41.11994934082031" y="50" font-family="Virgil, Segoe UI Emoji" font-size="20px" fill="#1e1e1e" text-anchor="middle" style="white-space: pre;" direction="ltr" dominant-baseline="text-before-edge">Circuit</text></g><g stroke-linecap="round"><g transform="translate(216.15734600000025 324.04782455969064) rotate(0 -36.48817028861418 0.45019881021701735)"><path d="M-0.48 -0.48 C-12.48 -0.53, -60.15 -0.48, -72.11 -0.27 M1.47 -1.77 C-10.6 -1.74, -60.26 0.02, -72.6 0.66" stroke="#1e1e1e" stroke-width="1" fill="none"></path></g><g transform="translate(216.15734600000025 324.04782455969064) rotate(0 -36.48817028861418 0.45019881021701735)"><path d="M-49.48 -8.86 C-57.02 -4.73, -64.91 -2.12, -72.6 0.66 M-49.48 -8.86 C-56.23 -6.87, -62.51 -2.97, -72.6 0.66" stroke="#1e1e1e" stroke-width="1" fill="none"></path></g><g transform="translate(216.15734600000025 324.04782455969064) rotate(0 -36.48817028861418 0.45019881021701735)"><path d="M-48.77 8.22 C-56.52 7.37, -64.62 5, -72.6 0.66 M-48.77 8.22 C-55.6 5.23, -62.09 4.13, -72.6 0.66" stroke="#1e1e1e" stroke-width="1" fill="none"></path></g></g><mask></mask><g stroke-linecap="round"><g transform="translate(374.9073460000002 281.4370341663452) rotate(0 35.76260599999999 0.5925762037971083)"><path d="M-0.1 0.07 C11.82 -0.06, 58.98 -0.16, 71.09 0.01 M-1.61 -0.94 C10.14 -1.04, 57.58 0.37, 69.92 0.93" stroke="#1e1e1e" stroke-width="1" fill="none"></path></g><g transform="translate(374.9073460000002 281.4370341663452) rotate(0 35.76260599999999 0.5925762037971083)"><path d="M46.13 8.64 C52.53 5.88, 56.8 6.33, 69.92 0.93 M46.13 8.64 C52.37 6.27, 60.01 3.23, 69.92 0.93" stroke="#1e1e1e" stroke-width="1" fill="none"></path></g><g transform="translate(374.9073460000002 281.4370341663452) rotate(0 35.76260599999999 0.5925762037971083)"><path d="M46.75 -8.45 C53.09 -6.66, 57.2 -1.66, 69.92 0.93 M46.75 -8.45 C52.76 -5.77, 60.21 -3.76, 69.92 0.93" stroke="#1e1e1e" stroke-width="1" fill="none"></path></g></g><mask></mask><g stroke-linecap="round"><g transform="translate(981.395422 426.504212) rotate(0 -0.625 19.999999999999943)"><path d="M0.22 -0.36 C0.12 6.24, -0.52 32.82, -0.81 39.56 M-0.34 0.65 C-0.45 7.3, -0.74 33.36, -1.01 40.04" stroke="#1e1e1e" stroke-width="1" fill="none"></path></g><g transform="translate(981.395422 426.504212) rotate(0 -0.625 19.999999999999943)"><path d="M-7.4 21.08 C-6.41 26.75, -4.91 30.41, -1.01 40.04 M-7.4 21.08 C-5.34 27.57, -3.22 32.92, -1.01 40.04" stroke="#1e1e1e" stroke-width="1" fill="none"></path></g><g transform="translate(981.395422 426.504212) rotate(0 -0.625 19.999999999999943)"><path d="M6.28 21.4 C3.75 27.02, 1.73 30.6, -1.01 40.04 M6.28 21.4 C4.02 27.72, 1.82 32.97, -1.01 40.04" stroke="#1e1e1e" stroke-width="1" fill="none"></path></g></g><mask></mask><g stroke-linecap="round"><g transform="translate(947.645422 461.5042119999999) rotate(0 -1.25 -18.749999999999943)"><path d="M-0.48 0.15 C-0.94 -6.02, -2.52 -31, -2.83 -37.26 M0.28 -0.24 C-0.01 -6.56, -1.28 -32.02, -1.76 -38.1" stroke="#1e1e1e" stroke-width="1" fill="none"></path></g><g transform="translate(947.645422 461.5042119999999) rotate(0 -1.25 -18.749999999999943)"><path d="M5.74 -20.87 C3.84 -26.53, 1.78 -30.75, -1.76 -38.1 M5.74 -20.87 C3.45 -26.62, 0.53 -31.73, -1.76 -38.1" stroke="#1e1e1e" stroke-width="1" fill="none"></path></g><g transform="translate(947.645422 461.5042119999999) rotate(0 -1.25 -18.749999999999943)"><path d="M-7.09 -20.08 C-5.22 -25.91, -3.5 -30.37, -1.76 -38.1 M-7.09 -20.08 C-5.25 -26.02, -4.02 -31.39, -1.76 -38.1" stroke="#1e1e1e" stroke-width="1" fill="none"></path></g></g><mask></mask><g stroke-linecap="round"><g transform="translate(1218.0909869999996 360.25984898887623) rotate(0 -73.86169649999988 0.5286601079212687)"><path d="M0.79 1.03 C-24.04 1.17, -123.48 1.24, -148.39 1.15 M-0.25 0.53 C-24.74 0.86, -121.69 2.57, -146.02 2.74" stroke="#1e1e1e" stroke-width="1" fill="none"></path></g><g transform="translate(1218.0909869999996 360.25984898887623) rotate(0 -73.86169649999988 0.5286601079212687)"><path d="M-122.65 -6.12 C-129.09 -3.97, -138.84 -1.3, -146.02 2.74 M-122.65 -6.12 C-127.5 -4.04, -134.41 -1.35, -146.02 2.74" stroke="#1e1e1e" stroke-width="1" fill="none"></path></g><g transform="translate(1218.0909869999996 360.25984898887623) rotate(0 -73.86169649999988 0.5286601079212687)"><path d="M-122.42 10.98 C-128.99 7.14, -138.81 3.83, -146.02 2.74 M-122.42 10.98 C-127.45 8.74, -134.42 7.1, -146.02 2.74" stroke="#1e1e1e" stroke-width="1" fill="none"></path></g></g><mask></mask><g stroke-linecap="round"><g transform="translate(440.1454220000001 308.4185735850975) rotate(0 -31.994037999999946 0.25179537426069487)"><path d="M1.14 0.48 C-9.18 0.38, -51.97 -0.04, -62.84 0.13 M0.29 -0.32 C-10.01 -0.3, -52.32 1.47, -63.18 1.46" stroke="#1e1e1e" stroke-width="1" fill="none"></path></g><g transform="translate(440.1454220000001 308.4185735850975) rotate(0 -31.994037999999946 0.25179537426069487)"><path d="M-39.89 -7.62 C-44.27 -3.44, -50.92 -3.46, -63.18 1.46 M-39.89 -7.62 C-49.46 -3.25, -58.06 -0.88, -63.18 1.46" stroke="#1e1e1e" stroke-width="1" fill="none"></path></g><g transform="translate(440.1454220000001 308.4185735850975) rotate(0 -31.994037999999946 0.25179537426069487)"><path d="M-39.5 9.48 C-44.06 9.82, -50.8 5.96, -63.18 1.46 M-39.5 9.48 C-49.1 7.36, -57.84 3.24, -63.18 1.46" stroke="#1e1e1e" stroke-width="1" fill="none"></path></g></g><mask></mask><g stroke-linecap="round"><g transform="translate(730.8479980000002 272.254212) rotate(0 51.875 0)"><path d="M0.85 -0.07 C18.06 0.1, 85.58 1, 102.89 0.95 M-0.16 -1.16 C17.46 -1.3, 87.72 -1, 105.14 -0.67" stroke="#1e1e1e" stroke-width="1" fill="none"></path></g><g transform="translate(730.8479980000002 272.254212) rotate(0 51.875 0)"><path d="M81.56 7.64 C87.83 3.78, 95.92 4.51, 105.14 -0.67 M81.56 7.64 C87.28 5.45, 95.23 3.13, 105.14 -0.67" stroke="#1e1e1e" stroke-width="1" fill="none"></path></g><g transform="translate(730.8479980000002 272.254212) rotate(0 51.875 0)"><path d="M81.74 -9.46 C87.94 -8.69, 95.98 -3.33, 105.14 -0.67 M81.74 -9.46 C87.26 -7, 95.16 -4.68, 105.14 -0.67" stroke="#1e1e1e" stroke-width="1" fill="none"></path></g></g><mask></mask><g stroke-linecap="round"><g transform="translate(837.8855379835677 386.75971645321783) rotate(0.24488886581937364 -56.88296109082603 -0.6002507068400575)"><path d="M0.42 -0.11 C-8.18 -0.25, -32.95 0.39, -52.14 0.28 C-71.33 0.16, -104.41 -0.56, -114.72 -0.79 M-0.81 -1.21 C-9 -1.23, -31.31 -1.41, -49.9 -1.7 C-68.48 -1.98, -101.66 -3.21, -112.33 -2.92" stroke="#1e1e1e" stroke-width="1" fill="none"></path></g><g transform="translate(837.8855379835677 386.75971645321783) rotate(0.24488886581937364 -56.88296109082603 -0.6002507068400575)"><path d="M-88.78 -11.34 C-94.92 -10.58, -100.3 -8.53, -112.33 -2.92 M-88.78 -11.34 C-97.17 -8.92, -104.69 -5.56, -112.33 -2.92" stroke="#1e1e1e" stroke-width="1" fill="none"></path></g><g transform="translate(837.8855379835677 386.75971645321783) rotate(0.24488886581937364 -56.88296109082603 -0.6002507068400575)"><path d="M-88.88 5.76 C-95.16 2.14, -100.51 -0.2, -112.33 -2.92 M-88.88 5.76 C-97.2 2.47, -104.69 0.12, -112.33 -2.92" stroke="#1e1e1e" stroke-width="1" fill="none"></path></g></g><mask></mask><g stroke-linecap="round"><g transform="translate(755.8149900000001 18.250001000000054) rotate(0 1.875 340.6249999999999)"><path d="M0.86 0.4 C1.24 113.81, 2.8 566.95, 3.34 680.44" stroke="#1e1e1e" stroke-width="1.5" fill="none" stroke-dasharray="8 9"></path></g></g><mask></mask><g transform="translate(219.10467200000014 12.137634999999761) rotate(0 157.86004638671875 45)"><text x="0" y="0" font-family="Virgil, Segoe UI Emoji" font-size="36px" fill="#1e1e1e" text-anchor="start" style="white-space: pre;" direction="ltr" dominant-baseline="text-before-edge">Private Execution</text><text x="0" y="45" font-family="Virgil, Segoe UI Emoji" font-size="36px" fill="#1e1e1e" text-anchor="start" style="white-space: pre;" direction="ltr" dominant-baseline="text-before-edge">   (Client-side)</text></g><g transform="translate(923.3987226132813 10) rotate(0 141.82205200195312 45)"><text x="0" y="0" font-family="Virgil, Segoe UI Emoji" font-size="36px" fill="#1e1e1e" text-anchor="start" style="white-space: pre;" direction="ltr" dominant-baseline="text-before-edge">Public Execution</text><text x="0" y="45" font-family="Virgil, Segoe UI Emoji" font-size="36px" fill="#1e1e1e" text-anchor="start" style="white-space: pre;" direction="ltr" dominant-baseline="text-before-edge"> (Network-side)</text></g></svg>