<svg width="1170" height="300" viewBox="0 0 1170 300" fill="none" xmlns="http://www.w3.org/2000/svg">
<path d="M969.772 137.88C969.772 73.5413 1002.03 29.252 1051.04 19.6384V104.038L1018.78 136.213L1051.04 168.799V260.301C999.089 247.764 969.772 198.885 969.772 137.88ZM140.334 156.685L216.575 76.4643C215.739 88.5785 214.903 110.729 214.48 133.701L214.056 167.966C211.538 170.055 206.513 172.145 202.323 172.145C197.297 172.145 191.013 171.722 170.487 165.454C160.849 162.531 151.221 159.608 140.323 156.685H140.334ZM302.866 297.077L302.442 296.244L455.346 13.3812H388.321C343.081 13.3812 326.322 35.1091 316.271 100.704H311.658V4.60117H511.061V6.26827L358.581 288.297H419.744C468.339 288.297 491.795 261.979 499.751 188.438H504.364V297.066H302.866V297.077ZM1064.02 300C1103.81 300 1144.87 279.106 1170 246.519V225.625C1143.19 251.532 1113.86 263.224 1077.42 263.224C1071.14 263.224 1065.28 262.801 1059.83 261.968V168.377L1091.25 136.202L1059.83 104.449V18.3825C1064.02 17.9602 1067.37 17.9602 1071.14 17.9602C1110.52 17.9602 1134.4 31.3303 1163.72 71.0184V25.8956C1134.39 10.436 1104.23 2.50064 1073.65 2.50064C993.217 2.50064 933.312 68.0954 933.312 153.751C933.312 234.805 988.604 299.989 1064.01 299.989L1064.02 300ZM776.653 40.9551H924.108C934.159 40.9551 942.539 32.5973 942.539 22.1502C942.539 12.5366 934.159 4.60117 924.108 4.60117H776.653C766.602 4.60117 758.635 12.5366 758.635 22.1502C758.635 32.5973 766.591 40.9551 776.653 40.9551ZM775.818 82.3213C785.033 82.3213 792.989 75.2195 792.989 66.0282C792.989 56.837 785.033 50.1463 775.818 50.1463C766.602 50.1463 758.646 56.837 758.646 66.0282C758.646 75.2195 766.19 82.3213 775.818 82.3213ZM774.982 167.977H883.893C892.685 167.977 899.817 160.042 899.817 150.006C899.817 139.97 892.696 131.623 883.893 131.623H774.982C766.19 131.623 758.646 139.981 758.646 150.006C758.646 160.03 766.19 167.977 774.982 167.977ZM775.818 123.265C785.033 123.265 792.989 115.741 792.989 106.972C792.989 97.3586 785.033 91.0903 775.818 91.0903C766.602 91.0903 758.646 97.3586 758.646 106.972C758.646 115.741 766.19 123.265 775.818 123.265ZM775.394 209.332C785.033 209.332 792.989 202.23 792.989 193.039C792.989 183.848 785.033 176.324 775.394 176.324C765.756 176.324 758.635 183.425 758.635 193.039C758.635 202.653 766.179 209.332 775.394 209.332ZM776.653 297.077H924.108C934.159 297.077 942.539 288.719 942.539 278.694C942.539 268.67 934.159 260.723 924.108 260.723H776.653C766.602 260.723 758.635 268.659 758.635 278.694C758.635 288.73 766.591 297.077 776.653 297.077ZM775.394 251.532C785.033 251.532 792.989 244.43 792.989 235.239C792.989 226.048 785.033 218.523 775.394 218.523C765.756 218.523 758.635 225.625 758.635 235.239C758.635 244.852 766.179 251.532 775.394 251.532ZM608.25 297.077H654.749L648.465 34.2644L738.11 48.8904H738.946L730.99 4.60117H531.586L523.207 48.8904H524.042L613.688 34.2644L608.239 297.077H608.25ZM165.05 203.908C177.195 203.908 192.695 196.384 214.056 176.746L212.797 261.979C212.797 277.016 232.063 299.166 244.633 299.166C252.589 299.166 264.322 290.809 278.986 272.426L293.227 254.455L288.202 249.854L284.848 253.61C280.658 258.211 276.892 260.301 273.537 260.301C266.417 260.301 257.614 246.931 257.614 235.228L259.286 31.7526L285.26 4.17883L281.07 -7.62939e-06L251.742 27.5738L212.786 15.4596C189.742 8.35772 172.571 3.34528 165.027 3.34528C154.976 3.34528 135.287 14.626 117.692 32.175L74.123 75.2084L109.725 111.562L145.75 75.2084L123.553 53.9029C108.889 40.1104 136.122 32.175 149.94 36.7762L219.483 60.1711L129.838 154.184C113.502 150.006 98.8381 146.66 90.4586 146.66C74.123 146.66 47.313 161.286 19.2439 185.937L5.00319 198.474L10.4521 204.742L18.4082 197.64C30.1417 187.193 41.4518 180.513 52.7619 180.513C59.47 180.513 69.9332 182.181 89.2106 187.615C92.1412 188.449 95.4952 189.282 98.8492 190.127L0 294.143L5.8612 299.989L18.007 287.452C22.6202 282.851 28.058 279.928 34.766 279.928C50.6893 279.928 90.0574 299.144 108.076 299.144C117.291 299.144 127.342 292.454 139.075 276.583L157.929 251.51L152.904 247.331L144.524 256.522C139.911 261.534 135.732 264.046 130.696 264.046C117.714 264.046 86.7145 248.164 72.8861 248.164C66.6015 248.164 59.4811 250.254 49.4302 255.689L108.911 193.017C129.437 198.451 154.152 203.875 165.05 203.875V203.908Z" fill="#F2EEE1"/>
</svg>
