<?xml version="1.0" encoding="UTF-8"?>
<svg id="Layer_2" data-name="Layer 2" xmlns="http://www.w3.org/2000/svg" viewBox="0 0 81.73 57.05">
  <defs>
    <style>
      .cls-1 {
        fill: #fff;
        stroke-width: 0px;
      }
    </style>
  </defs>
  <g id="Layer_1-2" data-name="Layer 1">
    <path class="cls-1" d="M76.63.94c-1.16-.42-2.44-.64-3.75-.64-5.92,0-12.34,5.05-15.83,14.44-1.44-10.14-6.83-14.74-15.32-14.74-6.97,0-13.68,3.35-19.69,10.13l-.83-8.93-1.86-1.2L0,7.33v4.31l8.15,1.04c.23,4.63.35,7.62.35,13.99v6.08c0,5.02-.06,12.36-.17,18.1l-7.47,1.48v4.73h28.58v-4.73l-6.83-1.41c-.11-5.75-.17-13.13-.17-18.17V15.46c4.57-3.88,8.88-5.79,13.02-5.79,5.75,0,8.07,3.05,8.07,12.11v10.95c0,5.17-.06,12.43-.17,18.11l-7.34,1.47v4.73h28.62v-4.73l-7-1.42c-.11-5.69-.17-12.97-.17-18.16v-10.04c1.78-5.19,4.56-9.39,8.11-12.39l1.03,1.13c2.42,2.71,4.88,4.09,7.96,4.09,2.33,0,4.17-.82,5.45-2.36,3.36-4.05,1.57-10.45-3.38-12.24Z"/>
  </g>
</svg>