<?xml version="1.0" encoding="utf-8"?>
<!-- Generator: Adobe Illustrator 26.4.0, SVG Export Plug-In . SVG Version: 6.00 Build 0)  -->
<svg version="1.1" id="Layer_1" xmlns="http://www.w3.org/2000/svg" xmlns:xlink="http://www.w3.org/1999/xlink" x="0px" y="0px"
	 viewBox="0 0 389.1 100.1" style="enable-background:new 0 0 389.1 100.1;" xml:space="preserve">
<style type="text/css">
	.st0{fill:#FFFFFF;}
</style>
<g>
	<path class="st0" d="M60.2,4.2l35.6,35.6c5.6,5.6,5.6,14.7,0,20.3L60.2,95.9c-5.6,5.6-14.7,5.6-20.3,0L4.2,60.2
		c-5.6-5.6-5.6-14.7,0-20.3L39.9,4.2C45.5-1.4,54.6-1.4,60.2,4.2z M47.7,13.2l-0.1,0.1L13.4,47.5C12,48.9,12,51,13.3,52.4l0.1,0.1
		l34.1,34.1c1.4,1.4,3.5,1.4,4.9,0.1l0.1-0.1l34.1-34.1c1.4-1.4,1.4-3.7,0-5.1l-34-34C51.3,12,49.1,12,47.7,13.2z M50.7,28.3
		l21.1,21.1c0.4,0.4,0.4,0.9,0,1.3L50.7,71.8c-0.4,0.4-0.9,0.4-1.3,0L28.3,50.7c-0.4-0.4-0.4-0.9,0-1.3l21.1-21.1
		C49.8,27.9,50.3,27.9,50.7,28.3z"/>
	<path class="st0" d="M146.3,12.4l-28.6,75.4H131l6.4-17.2H170l6.5,17.2H190l-28.6-75.4C161.4,12.4,146.3,12.4,146.3,12.4z
		 M153.6,27.3l12,31.5h-23.7L153.6,27.3z"/>
	<path class="st0" d="M239.7,77.1h-29.1l28.8-34.9v-9.6h-44.2v10.7h29.2l-29.6,35v9.4h44.9L239.7,77.1L239.7,77.1z"/>
	<path class="st0" d="M252.3,73.9c0,11.2,5.7,14.5,16.2,14.5c3.3,0,6.4-0.3,8.7-0.7V77.1c-1.9,0.2-3,0.3-5.1,0.3
		c-4.5,0-7.3-0.5-7.3-5.5V43.4h11.5V32.7h-11.5V16.5h-12.4v16.2h-7.7v10.7h7.7v30.5H252.3z"/>
	<path class="st0" d="M308.9,88.9c11,0,19.7-5.8,23.6-15.4l-10.8-4.1c-1.7,5.7-6.6,8.8-12.8,8.8c-8.1,0-13.8-5.8-14.7-15.2h38.6
		v-4.2c0-15.1-8.5-27.2-24.5-27.2c-15.3,0-26.2,12.5-26.2,28.7C282.1,77.3,293.2,88.9,308.9,88.9z M308.3,42.2
		c8,0,11.8,5.2,11.9,11.3h-25.3C296.7,46.1,301.8,42.2,308.3,42.2z"/>
	<path class="st0" d="M351.4,60.3c0-11.2,5.9-17.8,14.5-17.8c6.7,0,10.8,4.5,12.4,10.5l10.6-5.8c-2.9-8.8-11.1-15.5-23-15.5
		c-15.7,0-27.1,11.7-27.1,28.7s11.3,28.7,27.1,28.7c12,0,20.4-7,23.2-16l-10.8-5.5c-1.6,6.1-5.7,10.5-12.4,10.5
		C357.3,78,351.4,71.5,351.4,60.3z"/>
</g>
</svg>
