<?xml version="1.0" encoding="utf-8"?>
<!-- Generator: Adobe Illustrator 27.3.1, SVG Export Plug-In . SVG Version: 6.00 Build 0)  -->
<svg version="1.1" id="Layer_1" xmlns="http://www.w3.org/2000/svg" xmlns:xlink="http://www.w3.org/1999/xlink" x="0px" y="0px"
	 viewBox="0 0 704 225.9" style="enable-background:new 0 0 704 225.9;" xml:space="preserve">
<style type="text/css">
	.st0{fill:#2F204A;}
</style>
<g>
	<path class="st0" d="M129.1,70.2c-0.8-0.8-1.8-0.8-2.7,0l-43.2,43.2c-0.8,0.8-0.8,1.8,0,2.7l43.2,43.2c0.8,0.8,1.8,0.8,2.7,0
		l43.2-43.2c0.8-0.8,0.8-1.8,0-2.7L129.1,70.2z"/>
	<path class="st0" d="M148.6,20.8c-11.5-11.5-30.1-11.5-41.6,0L33.9,93.9c-11.5,11.5-11.5,30.1,0,41.6l73.1,73.1
		c11.5,11.5,30.1,11.5,41.6,0l72.9-73.3c11.5-11.5,11.5-30.1,0-41.6L148.6,20.8z M202.6,119.7l-69.8,69.8l-0.2,0.2
		c-2.9,2.7-7.2,2.7-10-0.2l-69.8-69.8l-0.2-0.2c-2.7-2.9-2.7-7.2,0.2-10l70-70l0.2-0.2c2.9-2.5,7.4-2.5,10,0.4l69.6,69.6
		C205.5,112.1,205.5,116.8,202.6,119.7z"/>
	<polygon class="st0" points="381.6,146.3 310,39.2 281.9,39.2 281.9,192.1 308.1,192.1 308.1,79.9 383.9,192.1 407.8,192.1 
		407.8,39.2 381.6,39.2 	"/>
	<path class="st0" d="M522.1,95.2c-5-5.5-10.8-9.8-17.6-12.7c-6.7-2.9-14.1-4.4-22-4.4c-8,0-15.3,1.5-22,4.4
		c-6.7,2.9-12.6,7.1-17.6,12.7c-4.7,5.1-8.2,11.2-10.7,18.2c-2.4,7-3.6,14.7-3.6,22.9c0,8.2,1.2,15.9,3.6,22.9
		c2.4,7,6,13.1,10.7,18.2c5,5.5,10.8,9.8,17.6,12.7c6.7,2.9,14.1,4.4,22,4.4c8,0,15.3-1.5,22-4.4c6.7-2.9,12.6-7.1,17.6-12.7
		c4.7-5.1,8.2-11.2,10.6-18.2c2.4-7,3.6-14.7,3.6-22.9c0-8.2-1.2-15.9-3.6-22.9C530.4,106.4,526.8,100.3,522.1,95.2z M503.1,163.2
		c-5,6.5-11.9,9.8-20.6,9.8c-8.7,0-15.5-3.3-20.6-9.8c-5-6.5-7.6-15.5-7.6-26.8c0-11.4,2.5-20.3,7.6-26.8c5-6.5,11.9-9.8,20.6-9.8
		c8.7,0,15.5,3.3,20.6,9.8c5,6.5,7.6,15.5,7.6,26.8C510.6,147.7,508.1,156.6,503.1,163.2z"/>
	<rect x="556.2" y="80.3" class="st0" width="25.6" height="111.8"/>
	<rect x="555.8" y="39.2" class="st0" width="26.4" height="26.2"/>
	<path class="st0" d="M668.2,79.8c-1.1-0.1-2.3-0.1-3.4-0.1c-7,0-13.2,1.6-18.6,4.7c-5.5,3.1-9.5,7.3-12,12.6V80.3h-25.6v111.8h25.6
		v-58.8c0-8.5,2.6-15.4,7.9-20.6c5.3-5.2,12.1-7.8,20.7-7.8c1.7,0,3.3,0,4.7,0.1c1.4,0.1,3,0.2,4.7,0.5V80.1
		C670.7,80,669.4,79.9,668.2,79.8z"/>
</g>
</svg>
