<svg width="467" height="120" viewBox="0 0 467 120" fill="none" xmlns="http://www.w3.org/2000/svg">
<path fill-rule="evenodd" clip-rule="evenodd" d="M72.2376 5.05177L114.948 47.7624C121.684 54.4981 121.684 65.4188 114.948 72.1545L72.1545 114.948C65.4188 121.684 54.4981 121.684 47.7624 114.948L5.05177 72.2376C-1.68392 65.5019 -1.68392 54.5812 5.05177 47.8455L47.8455 5.05177C54.5812 -1.68392 65.5019 -1.68392 72.2376 5.05177ZM57.1518 15.8852L56.98 16.048L16.048 56.98C14.4202 58.6078 14.366 61.2133 15.8852 62.9063L16.048 63.0781L56.9219 103.952C58.5497 105.58 61.1552 105.634 62.8481 104.115L63.0199 103.952L103.952 63.0199C105.636 61.336 105.636 58.6058 103.952 56.9219L63.0781 16.048C61.4503 14.4202 58.8448 14.366 57.1518 15.8852ZM60.7789 33.9045L86.0955 59.2211C86.5164 59.6421 86.5164 60.3247 86.0955 60.7456L60.7456 86.0955C60.3247 86.5164 59.6421 86.5164 59.2211 86.0955L33.9045 60.7789C33.4836 60.3579 33.4836 59.6753 33.9045 59.2544L59.2544 33.9045C59.6753 33.4836 60.3579 33.4836 60.7789 33.9045Z" fill="#2F1F49"/>
<path d="M175.416 14.8617L141.177 105.242H157.164L164.842 84.5978H203.864L211.668 105.242H227.907L193.668 14.8617H175.416ZM184.227 32.7363L198.577 70.4995H170.129L184.227 32.7363Z" fill="#2F1F49"/>
<path d="M287.445 92.4022H252.577L287.067 50.6109V39.1561H234.073V51.9956H269.067L233.569 93.9128V105.242H287.445V92.4022Z" fill="#2F1F49"/>
<path d="M302.553 88.6259C302.553 102.095 309.35 105.997 321.938 105.997C325.84 105.997 329.617 105.619 332.386 105.116V92.4022C330.12 92.654 328.736 92.7799 326.218 92.7799C320.805 92.7799 317.407 92.1505 317.407 86.2342V51.9956H331.253V39.1561H317.407V19.7709H302.553V39.1561H293.364V51.9956H302.553V88.6259Z" fill="#2F1F49"/>
<path d="M370.387 106.626C383.604 106.626 394.052 99.7031 398.71 88.1224L385.744 83.2132C383.73 90.0106 377.814 93.7869 370.387 93.7869C360.695 93.7869 353.897 86.8636 352.764 75.5347H399.087V70.4995C399.087 52.3732 388.891 37.8973 369.758 37.8973C351.38 37.8973 338.288 52.8767 338.288 72.2618C338.288 92.654 351.506 106.626 370.387 106.626ZM369.632 50.6109C379.199 50.6109 383.73 56.9048 383.856 64.2057H353.52C355.785 55.2684 361.828 50.6109 369.632 50.6109Z" fill="#2F1F49"/>
<path d="M421.372 72.2618C421.372 58.7929 428.422 50.8627 438.744 50.8627C446.8 50.8627 451.709 56.2754 453.597 63.4504L466.311 56.5271C462.786 45.9534 452.968 37.8973 438.744 37.8973C419.862 37.8973 406.267 51.8697 406.267 72.2618C406.267 92.654 419.862 106.626 438.744 106.626C453.094 106.626 463.164 98.1926 466.563 87.493L453.597 80.9474C451.709 88.2483 446.8 93.5351 438.744 93.5351C428.422 93.5351 421.372 85.7307 421.372 72.2618Z" fill="#2F1F49"/>
</svg>
